<svg width="512" height="512" xmlns="http://www.w3.org/2000/svg">

 <g>
  <title>background</title>
  <rect fill="none" id="canvas_background" height="514" width="514" y="-1" x="-1"/>
 </g>
 <g>
  <title>Layer 1</title>
  <g id="svg_2">
   <path id="svg_3" fill="#b96d00" d="m496.438,147.084c8.594,0 15.562,-6.967 15.562,-15.562l0,-77.832c0,-8.595 -6.969,-15.562 -15.562,-15.562l-87.149,0l0,-15.553c0,-8.595 -6.969,-15.562 -15.562,-15.562s-15.562,6.967 -15.562,15.562l0,15.553l-244.329,0l0,-15.553c0,-8.595 -6.967,-15.562 -15.562,-15.562s-15.562,6.967 -15.562,15.562l0,15.553l-87.15,0c-8.595,0 -15.562,6.967 -15.562,15.562l0,77.832l0,357.904c0,8.595 6.967,15.562 15.562,15.562l480.875,0c8.594,0 15.562,-6.967 15.562,-15.562l0,-295.862c0,-8.595 -6.969,-15.562 -15.562,-15.562c-8.594,0 -15.562,6.967 -15.562,15.562l0,280.299l-449.75,0l0,-326.779l362.602,0c8.594,0 15.562,-6.967 15.562,-15.562s-6.969,-15.562 -15.562,-15.562l-362.602,0l0,-46.708l71.587,0l0,7.781c0,8.595 6.967,15.562 15.562,15.562s15.562,-6.967 15.562,-15.562l0,-7.781l244.328,0l0,7.781c0,8.595 6.969,15.562 15.562,15.562s15.562,-6.967 15.562,-15.562l0,-7.781l71.587,0l0,62.269c0,8.596 6.969,15.563 15.563,15.563z"/>
   <path id="svg_4" fill="#b96d00" d="m77.812,178.002c-8.595,0 -15.562,6.967 -15.562,15.562l0,233.405c0,8.595 6.967,15.562 15.562,15.562l250.015,0l106.362,0c8.594,0 15.562,-6.967 15.562,-15.562l0,-106.362l0,-127.043c0,-8.595 -6.969,-15.562 -15.562,-15.562l-356.377,0zm15.562,233.405l0,-202.28l325.252,0l0,105.035l-97.244,97.246l-228.008,0l0,-0.001zm272.024,0l53.228,-53.229l0,53.228l-53.228,0l0,0.001z"/>
   <path id="svg_5" fill="#b96d00" d="m246.278,336.843l0,-3.519c0,-12.408 -7.593,-14.815 -17.778,-14.815c-6.297,0 -8.334,-5.556 -8.334,-11.111c0,-5.556 2.037,-11.113 8.334,-11.113c7.037,0 14.445,-0.926 14.445,-15.926c0,-10.741 -6.111,-13.334 -13.704,-13.334c-9.074,0 -13.704,2.222 -13.704,9.445c0,6.297 -2.778,10.556 -13.519,10.556c-13.334,0 -15.002,-2.778 -15.002,-11.669c0,-14.445 10.372,-33.149 42.225,-33.149c23.519,0 41.299,8.519 41.299,33.521c0,13.519 -5,26.112 -14.26,30.373c10.926,4.074 18.89,12.223 18.89,27.223l0,3.519c0,30.373 -20.927,41.855 -46.853,41.855c-31.855,0 -44.077,-19.445 -44.077,-35.003c0,-8.334 3.519,-10.556 13.706,-10.556c11.852,0 14.815,2.594 14.815,9.63c0,8.704 8.148,10.741 16.482,10.741c12.591,-0.001 17.035,-4.63 17.035,-16.668z"/>
   <path id="svg_6" fill="#b96d00" d="m298.873,274.432l-5.371,3.333c-1.667,1.111 -3.333,1.482 -4.63,1.482c-5.371,0 -9.074,-5.741 -9.074,-11.482c0,-3.889 1.667,-7.593 5.371,-9.815l24.445,-14.817c1.482,-0.926 3.333,-1.296 5.371,-1.296c5.926,0 12.778,3.519 12.778,9.074l0,117.785c0,5.928 -7.223,8.889 -14.445,8.889s-14.445,-2.963 -14.445,-8.889l0,-94.264z"/>
  </g>
  <g id="svg_7"/>
  <g id="svg_8"/>
  <g id="svg_9"/>
  <g id="svg_10"/>
  <g id="svg_11"/>
  <g id="svg_12"/>
  <g id="svg_13"/>
  <g id="svg_14"/>
  <g id="svg_15"/>
  <g id="svg_16"/>
  <g id="svg_17"/>
  <g id="svg_18"/>
  <g id="svg_19"/>
  <g id="svg_20"/>
  <g id="svg_21"/>
 </g>
</svg>