<svg width="512" height="512" xmlns="http://www.w3.org/2000/svg">

 <g>
  <title>background</title>
  <rect fill="none" id="canvas_background" height="602" width="802" y="-1" x="-1"/>
 </g>
 <g>
  <title>Layer 1</title>
  <path id="svg_2" fill="#b96d00" d="m339.549,304.606c-31.646,0 -57.392,-25.746 -57.392,-57.392s25.747,-57.392 57.392,-57.392s57.392,25.746 57.392,57.392c0.001,31.645 -25.746,57.392 -57.392,57.392zm0,-87.471c-16.586,0 -30.077,13.492 -30.077,30.077s13.492,30.077 30.077,30.077c16.585,0 30.077,-13.492 30.077,-30.077s-13.491,-30.077 -30.077,-30.077z"/>
  <path id="svg_4" fill="#b96d00" d="m346.447,457.026l-238.595,0c-5.183,0 -9.921,-2.934 -12.229,-7.576c-2.307,-4.641 -1.791,-10.189 1.337,-14.323l131.389,-173.649c2.719,-3.595 7.049,-5.613 11.537,-5.402c4.502,0.213 8.608,2.633 10.975,6.467l107.206,173.649c2.6,4.213 2.718,9.504 0.307,13.828c-2.412,4.327 -6.976,7.006 -11.927,7.006zm-211.135,-27.315l186.652,0l-83.866,-135.845l-102.786,135.845z"/>
  <g id="svg_10">
   <path id="svg_11" fill="#b96d00" d="m87.417,383.768l-52.54,0c-19.231,0 -34.877,-15.645 -34.877,-34.876l0,-259.542c0,-19.231 15.646,-34.878 34.878,-34.878l368.487,0c19.231,0 34.876,15.646 34.876,34.878l0,52.54c0,7.543 -6.116,13.658 -13.658,13.658l-315.947,0c-4.17,0 -7.561,3.393 -7.561,7.562l0,207.002c0,7.542 -6.116,13.656 -13.658,13.656zm-52.539,-301.98c-4.17,0 -7.562,3.393 -7.562,7.562l0,259.542c0,4.17 3.393,7.562 7.562,7.562l38.882,0l0,-193.346c0,-19.231 15.645,-34.878 34.876,-34.878l302.289,0l0,-38.88c0,-4.17 -3.391,-7.562 -7.561,-7.562l-368.486,0z"/>
   <path id="svg_12" fill="#b96d00" d="m180.441,205.784l-93.024,0c-7.542,0 -13.658,-6.115 -13.658,-13.658s6.116,-13.658 13.658,-13.658l93.024,0c7.542,0 13.658,6.115 13.658,13.658s-6.115,13.658 -13.658,13.658z"/>
   <path id="svg_13" fill="#b96d00" d="m157.466,254.952l-70.049,0c-7.542,0 -13.658,-6.115 -13.658,-13.658s6.116,-13.658 13.658,-13.658l70.049,0c7.542,0 13.658,6.115 13.658,13.658s-6.116,13.658 -13.658,13.658z"/>
  </g>
  <g id="svg_14"/>
  <g id="svg_15"/>
  <g id="svg_16"/>
  <g id="svg_17"/>
  <g id="svg_18"/>
  <g id="svg_19"/>
  <g id="svg_20"/>
  <g id="svg_21"/>
  <g id="svg_22"/>
  <g id="svg_23"/>
  <g id="svg_24"/>
  <g id="svg_25"/>
  <g id="svg_26"/>
  <g id="svg_27"/>
  <g id="svg_28"/>
  <g fill="#b96d00" id="svg_31">
   <path id="svg_29" fill="#b96d00" d="m479.906,457.026l-214.411,0c-5.396,0 -10.287,-3.178 -12.48,-8.109c-2.192,-4.93 -1.277,-10.691 2.338,-14.697l107.206,-118.85c2.589,-2.872 6.276,-4.51 10.142,-4.51c3.866,0 7.551,1.639 10.142,4.51l107.206,118.85c3.614,4.007 4.53,9.767 2.338,14.697c-2.194,4.933 -7.085,8.109 -12.481,8.109zm-183.699,-27.315l152.988,0l-76.494,-84.802l-76.494,84.802z"/>
   <path id="svg_30" fill="#b96d00" d="m479.124,457.528l-368.488,0c-19.231,0 -34.876,-15.646 -34.876,-34.878l0,-259.542c0,-19.231 15.645,-34.878 34.876,-34.878l368.488,0c19.231,0 34.876,15.646 34.876,34.878l0,193.438c0,7.543 -6.116,13.658 -13.658,13.658s-13.658,-6.115 -13.658,-13.658l0,-193.438c0,-4.17 -3.391,-7.562 -7.561,-7.562l-368.487,0c-4.17,0 -7.561,3.393 -7.561,7.562l0,259.542c0,4.17 3.391,7.562 7.561,7.562l368.488,0c7.542,0 13.658,6.115 13.658,13.658c-0.001,7.543 -6.116,13.658 -13.658,13.658z"/>
  </g>
 </g>
</svg>