<svg width="512.001" height="512.001" xmlns="http://www.w3.org/2000/svg">

 <g>
  <title>background</title>
  <rect fill="none" id="canvas_background" height="602" width="802" y="-1" x="-1"/>
 </g>
 <g>
  <title>Layer 1</title>
  <path id="svg_5" fill="#b96d00" d="m497.887,256.149l-38.091,0l0,-54.539l47.321,-40.91c4.46,-3.854 6.053,-10.077 3.995,-15.601c-2.056,-5.524 -7.33,-9.189 -13.226,-9.189l-27.854,0l-34.398,-100.497c-1.881,-5.499 -6.942,-9.281 -12.749,-9.531c-5.844,-0.22 -11.174,3.089 -13.518,8.407c-5.078,11.517 -19.972,22.874 -41.939,31.977c-7.202,2.984 -10.619,11.241 -7.635,18.441c2.985,7.201 11.238,10.618 18.441,7.635c15.989,-6.625 29.136,-14.478 39.088,-23.265l22.649,66.168l-367.94,0l22.636,-66.133c11.735,10.368 27.915,19.393 48.035,26.698c31.851,11.56 72.087,17.928 113.298,17.928c19.692,0 39.04,-1.409 57.508,-4.187c7.709,-1.159 13.017,-8.348 11.857,-16.055c-1.159,-7.71 -8.352,-13.022 -16.055,-11.857c-17.083,2.57 -35.02,3.873 -53.309,3.873c-81.863,0 -142.266,-26.043 -153.366,-51.222c-2.344,-5.319 -7.748,-8.636 -13.516,-8.407c-5.808,0.25 -10.869,4.031 -12.75,9.531l-34.4,100.497l-27.855,0c-5.895,0 -11.169,3.665 -13.226,9.189c-2.058,5.524 -0.464,11.745 3.996,15.601l47.321,40.91l0,54.538l-38.091,0c-5.895,0 -11.169,3.664 -13.226,9.189c-2.058,5.524 -0.464,11.745 3.996,15.601l50.955,44.054c2.563,2.217 5.842,3.438 9.23,3.438l366.499,0l0,35.621c-8.492,-5.278 -18.5,-8.337 -29.213,-8.337c-30.609,0 -55.512,24.903 -55.512,55.512l0,46.674l-12.847,0l0,-10.255c0,-7.793 -6.32,-14.113 -14.113,-14.113s-14.113,6.32 -14.113,14.113l0,24.368c0,7.793 6.32,14.113 14.113,14.113l41.074,0l82.798,0l1.928,0c7.793,0 14.113,-6.32 14.113,-14.113l0,-150.164l47.321,-40.91c4.46,-3.854 6.053,-10.077 3.996,-15.601c-2.057,-5.526 -7.331,-9.19 -13.226,-9.19zm-37.906,-92.011l-18.306,15.827l-371.349,0l-18.306,-15.827l407.961,0zm-379.548,44.474l351.137,0l0,47.537l-351.137,0l0,-47.537zm294.637,249.288l0,-46.674c0,-15.045 12.241,-27.285 27.285,-27.285s27.285,12.241 27.285,27.285l0,46.674l-54.57,0l0,0zm66.606,-157.698l-371.35,0l-18.306,-15.826l14.3,0l379.364,0l14.3,0l-18.308,15.826z"/>
  <path id="svg_7" fill="#b96d00" d="m254.67,368.321c-43.74,0 -79.326,35.585 -79.326,79.326l0,10.255l-12.112,0l0,-46.674c0,-30.609 -24.904,-55.512 -55.514,-55.512s-55.512,24.902 -55.512,55.511l0,60.788c0,7.793 6.32,14.113 14.113,14.113l82.799,0l40.339,0c7.793,0 14.113,-6.32 14.113,-14.113l0,-24.368c0,-28.176 22.923,-51.099 51.099,-51.099c7.793,0 14.113,-6.32 14.113,-14.113s-6.319,-14.114 -14.112,-14.114zm-174.237,89.579l0,-46.674c0,-15.045 12.241,-27.285 27.285,-27.285c15.046,0 27.287,12.241 27.287,27.285l0,46.674l-54.572,0l0,0z"/>
  <g id="svg_8"/>
  <g id="svg_9"/>
  <g id="svg_10"/>
  <g id="svg_11"/>
  <g id="svg_12"/>
  <g id="svg_13"/>
  <g id="svg_14"/>
  <g id="svg_15"/>
  <g id="svg_16"/>
  <g id="svg_17"/>
  <g id="svg_18"/>
  <g id="svg_19"/>
  <g id="svg_20"/>
  <g id="svg_21"/>
  <g id="svg_22"/>
 </g>
</svg>