<svg width="511.996" height="511.996" xmlns="http://www.w3.org/2000/svg">

 <g>
  <title>background</title>
  <rect fill="none" id="canvas_background" height="602" width="802" y="-1" x="-1"/>
 </g>
 <g>
  <title>Layer 1</title>
  <g id="svg_1">
   <path id="svg_2" fill="#b96d00" d="m507.26,456.034c-5.504,-4.489 -13.551,-3.584 -17.997,1.877c-14.677,18.099 -36.446,28.484 -59.716,28.484l-347.102,0c-7.39,0 -14.498,-1.4 -21.41,-3.405l226.287,-113.143c6.323,-3.166 8.892,-10.846 5.726,-17.178c-3.166,-6.332 -10.863,-8.875 -17.178,-5.726l-242.637,121.319c-3.738,-3.14 -7.356,-6.477 -10.496,-10.359c-4.446,-5.461 -12.501,-6.366 -17.997,-1.877c-5.487,4.446 -6.34,12.501 -1.877,17.997c19.55,24.132 48.563,37.973 79.582,37.973l347.093,0c31.027,0 60.041,-13.841 79.59,-37.965c4.464,-5.496 3.619,-13.551 -1.868,-17.997z"/>
   <path id="svg_3" fill="#b96d00" d="m355,243.981c-29.926,36.471 -58.197,70.929 -31.249,97.86c2.492,2.509 5.769,3.755 9.045,3.755s6.554,-1.246 9.054,-3.746c5.001,-5.001 5.001,-13.099 0,-18.099c-9.822,-9.822 5.888,-30.549 32.939,-63.522c49.322,-60.092 123.853,-150.904 18.261,-256.479c-5.001,-5.001 -13.099,-5.001 -18.099,0s-5.001,13.099 0,18.099c89.173,89.174 28.672,162.893 -19.951,222.132z"/>
   <path id="svg_4" fill="#b96d00" d="m281.596,319.996c7.074,0 12.8,-5.726 12.8,-12.8c0,-23.689 19.046,-46.302 39.211,-70.238c36.139,-42.914 81.126,-96.324 8.235,-169.216c-5.001,-5.001 -13.099,-5.001 -18.099,0s-5.001,13.099 0,18.099c56.277,56.277 27.153,90.846 -9.728,134.622c-22.238,26.385 -45.227,53.692 -45.227,86.724c0.008,7.083 5.734,12.809 12.808,12.809z"/>
  </g>
  <g id="svg_5"/>
  <g id="svg_6"/>
  <g id="svg_7"/>
  <g id="svg_8"/>
  <g id="svg_9"/>
  <g id="svg_10"/>
  <g id="svg_11"/>
  <g id="svg_12"/>
  <g id="svg_13"/>
  <g id="svg_14"/>
  <g id="svg_15"/>
  <g id="svg_16"/>
  <g id="svg_17"/>
  <g id="svg_18"/>
  <g id="svg_19"/>
 </g>
</svg>