<svg width="512" height="512" xmlns="http://www.w3.org/2000/svg">

 <g>
  <title>background</title>
  <rect fill="none" id="canvas_background" height="602" width="802" y="-1" x="-1"/>
 </g>
 <g>
  <title>Layer 1</title>
  <g id="svg_2">
   <path stroke="null" id="svg_3" fill="#b96d00" d="m363.085,395.953c-3.269,0 -6.539,-1.30588 -9.258,-3.91395l-45.035,-43.1764l-274.905,0c-18.685,-0.00246 -33.887,-18.69547 -33.887,-41.67132l0,-244.39247c0,-22.97585 15.202,-41.66886 33.887,-41.66886l444.226,0c18.685,0 33.887,18.69301 33.887,41.66886l0,244.39001c0,22.97585 -15.202,41.67009 -33.887,41.67009l-60.734,0l-45.035,43.1764c-2.721,2.61176 -5.99,3.91764 -9.259,3.91764zm-329.198,-337.78865c-2.078,0 -3.769,2.07932 -3.769,4.63452l0,244.39001c0,2.55765 1.691,4.63698 3.769,4.63698l280.081,0c3.355,0 6.614,1.3772 9.258,3.91395l39.859,38.21357l39.859,-38.21357c2.646,-2.53675 5.905,-3.91395 9.258,-3.91395l65.911,0c2.078,0 3.769,-2.07932 3.769,-4.63698l0,-244.39001c0,-2.55519 -1.691,-4.63452 -3.769,-4.63452l-444.226,0z"/>
   <path id="svg_5" fill="#b96d00" d="m327.832,111.014l-256.111,0c-8.315,0 -15.059,-6.743 -15.059,-15.059s6.743,-15.059 15.059,-15.059l256.111,0c8.315,0 15.059,6.743 15.059,15.059c0,8.315 -6.742,15.059 -15.059,15.059z"/>
   <path id="svg_6" fill="#b96d00" d="m199.776,226.129l-128.055,0c-8.315,0 -15.059,-6.743 -15.059,-15.059s6.743,-15.059 15.059,-15.059l128.056,0c8.315,0 15.059,6.743 15.059,15.059s-6.743,15.059 -15.06,15.059z"/>
   <path id="svg_7" fill="#b96d00" d="m412.607,168.57l-340.886,0c-8.315,0 -15.059,-6.743 -15.059,-15.059s6.743,-15.059 15.059,-15.059l340.887,0c8.315,0 15.059,6.743 15.059,15.059s-6.743,15.059 -15.06,15.059z"/>
   <path id="svg_23" fill="#b96d00" d="m326.832,285.014l-256.111,0c-8.315,0 -15.059,-6.743 -15.059,-15.059s6.743,-15.059 15.059,-15.059l256.111,0c8.315,0 15.059,6.743 15.059,15.059c0,8.315 -6.742,15.059 -15.059,15.059z"/>
  </g>
  <g id="svg_8"/>
  <g id="svg_9"/>
  <g id="svg_10"/>
  <g id="svg_11"/>
  <g id="svg_12"/>
  <g id="svg_13"/>
  <g id="svg_14"/>
  <g id="svg_15"/>
  <g id="svg_16"/>
  <g id="svg_17"/>
  <g id="svg_18"/>
  <g id="svg_19"/>
  <g id="svg_20"/>
  <g id="svg_21"/>
  <g id="svg_22"/>
 </g>
</svg>